<?xml version="1.0" standalone="no"?>
<!DOCTYPE svg PUBLIC "-//W3C//DTD SVG 20010904//EN"
 "http://www.w3.org/TR/2001/REC-SVG-20010904/DTD/svg10.dtd">
<svg version="1.0" xmlns="http://www.w3.org/2000/svg"
 width="512.000000pt" height="512.000000pt" viewBox="0 0 512.000000 512.000000"
 preserveAspectRatio="xMidYMid meet">
<metadata>
Created by potrace 1.11, written by Peter Selinger 2001-2013
</metadata>
<g transform="translate(0.000000,512.000000) scale(0.100000,-0.100000)"
fill="#000000" stroke="none">
<path d="M274 5106 c-133 -32 -234 -137 -263 -274 -16 -75 -16 -4469 0 -4544
30 -139 130 -242 268 -274 83 -20 4479 -20 4562 0 138 32 238 135 268 274 18
84 15 4478 -3 4553 -32 138 -135 238 -274 268 -80 17 -4488 14 -4558 -3z
m3399 -1386 c30 -24 43 -58 57 -160 33 -220 227 -763 406 -1134 l19 -39 78 6
c127 9 174 -15 184 -92 11 -79 -34 -131 -112 -131 -19 0 -35 -5 -35 -10 0 -6
34 -72 76 -147 116 -207 137 -257 129 -299 -10 -55 -45 -84 -100 -84 -85 0
-147 77 -291 362 l-84 167 -42 5 c-24 3 -81 8 -128 11 -179 13 -422 66 -662
144 l-121 40 -130 -125 c-287 -276 -447 -365 -522 -290 -13 13 -27 36 -31 50
-12 49 15 84 145 189 141 113 301 255 301 265 0 4 -29 22 -65 41 -107 55 -141
119 -98 181 45 65 91 66 227 5 55 -25 100 -44 101 -43 191 258 329 470 404
617 68 135 84 182 106 311 9 52 21 108 27 123 21 55 112 76 161 37z m-1978
-76 c182 -30 311 -90 407 -193 114 -120 153 -234 152 -441 0 -121 -3 -143 -28
-215 -63 -181 -180 -323 -343 -416 -24 -13 -43 -27 -43 -30 0 -4 33 -33 73
-66 39 -33 153 -143 252 -243 99 -100 194 -188 210 -195 48 -21 148 -29 188
-16 20 7 47 28 62 47 32 42 81 74 112 74 39 0 74 -41 80 -92 7 -62 -10 -107
-58 -156 -82 -82 -195 -113 -349 -94 -148 18 -160 26 -390 264 -279 288 -388
377 -512 417 -65 21 -88 46 -88 97 0 37 6 51 28 74 28 28 48 34 197 60 236 41
397 272 370 529 -25 243 -184 373 -476 388 l-107 6 -21 -92 c-87 -371 -128
-825 -117 -1312 7 -309 5 -331 -35 -368 -30 -28 -97 -28 -131 -1 -57 44 -62
76 -66 420 -6 491 29 891 109 1239 11 46 18 85 17 87 -2 1 -102 -13 -223 -32
-140 -22 -235 -32 -261 -28 -63 9 -101 37 -115 83 -10 34 -9 44 7 78 25 51 57
64 183 74 58 4 180 20 271 34 294 47 445 52 645 19z"/>
<path d="M3517 3060 c-74 -149 -166 -300 -259 -429 -45 -62 -57 -85 -48 -91
23 -14 254 -79 357 -101 97 -20 313 -52 319 -47 1 2 -13 39 -33 83 -70 159
-138 334 -202 525 l-66 195 -68 -135z"/>
</g>
</svg>
